<svg id="visual" viewBox="0 0 960 540" width="960" height="540" xmlns="http://www.w3.org/2000/svg" xmlns:xlink="http://www.w3.org/1999/xlink" version="1.1"><g transform="translate(496.25511374089194 297.49540627479894)"><path d="M123 -119.9C174.9 -103.1 243 -79 283.1 -24.4C323.2 30.3 335.3 115.4 292 148.3C248.8 181.2 150.4 162 80.8 160.8C11.1 159.7 -29.7 176.6 -83.3 178.8C-137 181.1 -203.6 168.5 -258.4 124.5C-313.1 80.6 -356 5.1 -351.5 -69.3C-347.1 -143.7 -295.4 -217 -228.9 -231.3C-162.4 -245.6 -81.2 -200.8 -22.8 -173.6C35.6 -146.4 71.1 -136.8 123 -119.9" fill="#8c52ff"></path></g></svg>