<svg id="visual" viewBox="0 0 960 540" width="960" height="540" xmlns="http://www.w3.org/2000/svg" xmlns:xlink="http://www.w3.org/1999/xlink" version="1.1"><g transform="translate(565.6719542437181 257.128729940828)"><path d="M148.3 -180C173.3 -155.9 161.4 -91.1 164.2 -34.9C167 21.3 184.4 68.9 173 110.4C161.5 151.9 121.3 187.3 74.3 204.5C27.4 221.8 -26.3 220.8 -89.5 212.4C-152.7 203.9 -225.3 188 -278.4 139.6C-331.6 91.2 -365.2 10.4 -339.2 -46.4C-313.3 -103.3 -227.7 -136.3 -161.2 -153.1C-94.7 -169.9 -47.4 -170.4 7.2 -179C61.7 -187.5 123.4 -204.1 148.3 -180" fill="#8c52ff"></path></g></svg>