<svg id="visual" viewBox="0 0 960 540" width="960" height="540" xmlns="http://www.w3.org/2000/svg" xmlns:xlink="http://www.w3.org/1999/xlink" version="1.1"><g transform="translate(461.76467575077754 287.2715308810695)"><path d="M161.6 -165.6C228.1 -136.8 313.5 -103.6 328.7 -52.7C343.8 -1.9 288.8 66.6 234.9 112.7C181 158.9 128.1 182.8 80.5 184.1C32.8 185.4 -9.6 164.1 -65.8 154.9C-122.1 145.7 -192.3 148.6 -238.6 115.1C-284.9 81.6 -307.4 11.7 -287.5 -41.9C-267.5 -95.5 -205.1 -132.8 -150.1 -163.6C-95.1 -194.4 -47.6 -218.7 0 -218.7C47.6 -218.7 95.1 -194.4 161.6 -165.6" fill="#8c52ff"></path></g></svg>