<svg id="visual" viewBox="0 0 960 540" width="960" height="540" xmlns="http://www.w3.org/2000/svg" xmlns:xlink="http://www.w3.org/1999/xlink" version="1.1"><path d="M0 510L20 505.5C40 501 80 492 120 486.5C160 481 200 479 240 479C280 479 320 481 360 478.7C400 476.3 440 469.7 480 458.8C520 448 560 433 600 427.5C640 422 680 426 720 441.5C760 457 800 484 840 479.8C880 475.7 920 440.3 940 422.7L960 405L960 541L940 541C920 541 880 541 840 541C800 541 760 541 720 541C680 541 640 541 600 541C560 541 520 541 480 541C440 541 400 541 360 541C320 541 280 541 240 541C200 541 160 541 120 541C80 541 40 541 20 541L0 541Z" fill="#8c52ff" stroke-linecap="round" stroke-linejoin="miter"></path></svg>