<svg id="visual" viewBox="0 0 900 600" width="900" height="600" xmlns="http://www.w3.org/2000/svg" xmlns:xlink="http://www.w3.org/1999/xlink" version="1.1"><path d="M0 507L21.5 505.8C43 504.7 86 502.3 128.8 495.5C171.7 488.7 214.3 477.3 257.2 475.2C300 473 343 480 385.8 475.8C428.7 471.7 471.3 456.3 514.2 452C557 447.7 600 454.3 642.8 447.5C685.7 440.7 728.3 420.3 771.2 405.8C814 391.3 857 382.7 878.5 378.3L900 374L900 601L878.5 601C857 601 814 601 771.2 601C728.3 601 685.7 601 642.8 601C600 601 557 601 514.2 601C471.3 601 428.7 601 385.8 601C343 601 300 601 257.2 601C214.3 601 171.7 601 128.8 601C86 601 43 601 21.5 601L0 601Z" fill="#ac93fa" stroke-linecap="round" stroke-linejoin="miter"></path></svg>