<svg id="visual" viewBox="0 0 960 540" width="960" height="540" xmlns="http://www.w3.org/2000/svg" xmlns:xlink="http://www.w3.org/1999/xlink" version="1.1"><path d="M0 406L17.8 410.3C35.7 414.7 71.3 423.3 106.8 422.8C142.3 422.3 177.7 412.7 213.2 397.8C248.7 383 284.3 363 320 368.2C355.7 373.3 391.3 403.7 426.8 414C462.3 424.3 497.7 414.7 533.2 401.8C568.7 389 604.3 373 640 365C675.7 357 711.3 357 746.8 367.7C782.3 378.3 817.7 399.7 853.2 397.2C888.7 394.7 924.3 368.3 942.2 355.2L960 342L960 541L942.2 541C924.3 541 888.7 541 853.2 541C817.7 541 782.3 541 746.8 541C711.3 541 675.7 541 640 541C604.3 541 568.7 541 533.2 541C497.7 541 462.3 541 426.8 541C391.3 541 355.7 541 320 541C284.3 541 248.7 541 213.2 541C177.7 541 142.3 541 106.8 541C71.3 541 35.7 541 17.8 541L0 541Z" fill="#ac93fa"></path><path d="M0 434L17.8 428.7C35.7 423.3 71.3 412.7 106.8 407.8C142.3 403 177.7 404 213.2 404.3C248.7 404.7 284.3 404.3 320 400.7C355.7 397 391.3 390 426.8 392.8C462.3 395.7 497.7 408.3 533.2 412.8C568.7 417.3 604.3 413.7 640 416.3C675.7 419 711.3 428 746.8 434.3C782.3 440.7 817.7 444.3 853.2 441.7C888.7 439 924.3 430 942.2 425.5L960 421L960 541L942.2 541C924.3 541 888.7 541 853.2 541C817.7 541 782.3 541 746.8 541C711.3 541 675.7 541 640 541C604.3 541 568.7 541 533.2 541C497.7 541 462.3 541 426.8 541C391.3 541 355.7 541 320 541C284.3 541 248.7 541 213.2 541C177.7 541 142.3 541 106.8 541C71.3 541 35.7 541 17.8 541L0 541Z" fill="#a17ffd"></path><path d="M0 479L17.8 470.3C35.7 461.7 71.3 444.3 106.8 438.5C142.3 432.7 177.7 438.3 213.2 446.7C248.7 455 284.3 466 320 467.8C355.7 469.7 391.3 462.3 426.8 459C462.3 455.7 497.7 456.3 533.2 457.8C568.7 459.3 604.3 461.7 640 465.5C675.7 469.3 711.3 474.7 746.8 475C782.3 475.3 817.7 470.7 853.2 462.8C888.7 455 924.3 444 942.2 438.5L960 433L960 541L942.2 541C924.3 541 888.7 541 853.2 541C817.7 541 782.3 541 746.8 541C711.3 541 675.7 541 640 541C604.3 541 568.7 541 533.2 541C497.7 541 462.3 541 426.8 541C391.3 541 355.7 541 320 541C284.3 541 248.7 541 213.2 541C177.7 541 142.3 541 106.8 541C71.3 541 35.7 541 17.8 541L0 541Z" fill="#9669ff"></path><path d="M0 491L17.8 491.8C35.7 492.7 71.3 494.3 106.8 495.7C142.3 497 177.7 498 213.2 495.3C248.7 492.7 284.3 486.3 320 480.7C355.7 475 391.3 470 426.8 467.5C462.3 465 497.7 465 533.2 466.7C568.7 468.3 604.3 471.7 640 475.2C675.7 478.7 711.3 482.3 746.8 481.2C782.3 480 817.7 474 853.2 472.5C888.7 471 924.3 474 942.2 475.5L960 477L960 541L942.2 541C924.3 541 888.7 541 853.2 541C817.7 541 782.3 541 746.8 541C711.3 541 675.7 541 640 541C604.3 541 568.7 541 533.2 541C497.7 541 462.3 541 426.8 541C391.3 541 355.7 541 320 541C284.3 541 248.7 541 213.2 541C177.7 541 142.3 541 106.8 541C71.3 541 35.7 541 17.8 541L0 541Z" fill="#8c52ff"></path></svg>