<svg id="visual" viewBox="0 0 960 540" width="960" height="540" xmlns="http://www.w3.org/2000/svg" xmlns:xlink="http://www.w3.org/1999/xlink" version="1.1"><path d="M0 500L20 494C40 488 80 476 120 468.7C160 461.3 200 458.7 240 458.7C280 458.7 320 461.3 360 458.2C400 455 440 446 480 431.5C520 417 560 397 600 389.8C640 382.7 680 388.3 720 409.2C760 430 800 466 840 460.3C880 454.7 920 407.3 940 383.7L960 360L960 541L940 541C920 541 880 541 840 541C800 541 760 541 720 541C680 541 640 541 600 541C560 541 520 541 480 541C440 541 400 541 360 541C320 541 280 541 240 541C200 541 160 541 120 541C80 541 40 541 20 541L0 541Z" fill="#8c52ff" stroke-linecap="round" stroke-linejoin="miter"></path></svg>