<svg id="visual" viewBox="0 0 540 960" width="540" height="960" xmlns="http://www.w3.org/2000/svg" xmlns:xlink="http://www.w3.org/1999/xlink" version="1.1"><path d="M179 0L171.2 17.8C163.3 35.7 147.7 71.3 140 106.8C132.3 142.3 132.7 177.7 128.2 213.2C123.7 248.7 114.3 284.3 115.5 320C116.7 355.7 128.3 391.3 137.2 426.8C146 462.3 152 497.7 151.7 533.2C151.3 568.7 144.7 604.3 143.7 640C142.7 675.7 147.3 711.3 152.3 746.8C157.3 782.3 162.7 817.7 157.8 853.2C153 888.7 138 924.3 130.5 942.2L123 960L0 960L0 942.2C0 924.3 0 888.7 0 853.2C0 817.7 0 782.3 0 746.8C0 711.3 0 675.7 0 640C0 604.3 0 568.7 0 533.2C0 497.7 0 462.3 0 426.8C0 391.3 0 355.7 0 320C0 284.3 0 248.7 0 213.2C0 177.7 0 142.3 0 106.8C0 71.3 0 35.7 0 17.8L0 0Z" fill="#ac93fa"></path><path d="M134 0L132.2 17.8C130.3 35.7 126.7 71.3 117.8 106.8C109 142.3 95 177.7 97 213.2C99 248.7 117 284.3 118.8 320C120.7 355.7 106.3 391.3 103.7 426.8C101 462.3 110 497.7 108.8 533.2C107.7 568.7 96.3 604.3 101.7 640C107 675.7 129 711.3 133 746.8C137 782.3 123 817.7 114.5 853.2C106 888.7 103 924.3 101.5 942.2L100 960L0 960L0 942.2C0 924.3 0 888.7 0 853.2C0 817.7 0 782.3 0 746.8C0 711.3 0 675.7 0 640C0 604.3 0 568.7 0 533.2C0 497.7 0 462.3 0 426.8C0 391.3 0 355.7 0 320C0 284.3 0 248.7 0 213.2C0 177.7 0 142.3 0 106.8C0 71.3 0 35.7 0 17.8L0 0Z" fill="#a17ffd"></path><path d="M98 0L100.7 17.8C103.3 35.7 108.7 71.3 106.2 106.8C103.7 142.3 93.3 177.7 87.5 213.2C81.7 248.7 80.3 284.3 76.8 320C73.3 355.7 67.7 391.3 68 426.8C68.3 462.3 74.7 497.7 77.3 533.2C80 568.7 79 604.3 78.8 640C78.7 675.7 79.3 711.3 78.5 746.8C77.7 782.3 75.3 817.7 77.8 853.2C80.3 888.7 87.7 924.3 91.3 942.2L95 960L0 960L0 942.2C0 924.3 0 888.7 0 853.2C0 817.7 0 782.3 0 746.8C0 711.3 0 675.7 0 640C0 604.3 0 568.7 0 533.2C0 497.7 0 462.3 0 426.8C0 391.3 0 355.7 0 320C0 284.3 0 248.7 0 213.2C0 177.7 0 142.3 0 106.8C0 71.3 0 35.7 0 17.8L0 0Z" fill="#9669ff"></path><path d="M54 0L52.7 17.8C51.3 35.7 48.7 71.3 49.5 106.8C50.3 142.3 54.7 177.7 53.2 213.2C51.7 248.7 44.3 284.3 45.7 320C47 355.7 57 391.3 57.8 426.8C58.7 462.3 50.3 497.7 50.5 533.2C50.7 568.7 59.3 604.3 62.5 640C65.7 675.7 63.3 711.3 61.7 746.8C60 782.3 59 817.7 56 853.2C53 888.7 48 924.3 45.5 942.2L43 960L0 960L0 942.2C0 924.3 0 888.7 0 853.2C0 817.7 0 782.3 0 746.8C0 711.3 0 675.7 0 640C0 604.3 0 568.7 0 533.2C0 497.7 0 462.3 0 426.8C0 391.3 0 355.7 0 320C0 284.3 0 248.7 0 213.2C0 177.7 0 142.3 0 106.8C0 71.3 0 35.7 0 17.8L0 0Z" fill="#8c52ff"></path></svg>