<svg id="visual" viewBox="0 0 960 540" width="960" height="540" xmlns="http://www.w3.org/2000/svg" xmlns:xlink="http://www.w3.org/1999/xlink" version="1.1"><path d="M0 135L20 118C40 101 80 67 120 57.8C160 48.7 200 64.3 240 80C280 95.7 320 111.3 360 104C400 96.7 440 66.3 480 69.3C520 72.3 560 108.7 600 131.2C640 153.7 680 162.3 720 153.2C760 144 800 117 840 96.7C880 76.3 920 62.7 940 55.8L960 49L960 0L940 0C920 0 880 0 840 0C800 0 760 0 720 0C680 0 640 0 600 0C560 0 520 0 480 0C440 0 400 0 360 0C320 0 280 0 240 0C200 0 160 0 120 0C80 0 40 0 20 0L0 0Z" fill="#8c52ff" stroke-linecap="round" stroke-linejoin="miter"></path></svg>