<svg id="visual" viewBox="0 0 960 540" width="960" height="540" xmlns="http://www.w3.org/2000/svg" xmlns:xlink="http://www.w3.org/1999/xlink" version="1.1"><path d="M0 462L17.8 467.8C35.7 473.7 71.3 485.3 106.8 490.7C142.3 496 177.7 495 213.2 480.8C248.7 466.7 284.3 439.3 320 431.7C355.7 424 391.3 436 426.8 452.7C462.3 469.3 497.7 490.7 533.2 487.7C568.7 484.7 604.3 457.3 640 440.5C675.7 423.7 711.3 417.3 746.8 425C782.3 432.7 817.7 454.3 853.2 468.8C888.7 483.3 924.3 490.7 942.2 494.3L960 498L960 541L942.2 541C924.3 541 888.7 541 853.2 541C817.7 541 782.3 541 746.8 541C711.3 541 675.7 541 640 541C604.3 541 568.7 541 533.2 541C497.7 541 462.3 541 426.8 541C391.3 541 355.7 541 320 541C284.3 541 248.7 541 213.2 541C177.7 541 142.3 541 106.8 541C71.3 541 35.7 541 17.8 541L0 541Z" fill="#8c52ff" stroke-linecap="round" stroke-linejoin="miter"></path></svg>