<svg id="visual" viewBox="0 0 960 540" width="960" height="540" xmlns="http://www.w3.org/2000/svg" xmlns:xlink="http://www.w3.org/1999/xlink" version="1.1"><path d="M0 395L17.8 399.7C35.7 404.3 71.3 413.7 106.8 425.5C142.3 437.3 177.7 451.7 213.2 448.5C248.7 445.3 284.3 424.7 320 414.3C355.7 404 391.3 404 426.8 420.3C462.3 436.7 497.7 469.3 533.2 472.5C568.7 475.7 604.3 449.3 640 449C675.7 448.7 711.3 474.3 746.8 471.5C782.3 468.7 817.7 437.3 853.2 432C888.7 426.7 924.3 447.3 942.2 457.7L960 468L960 541L942.2 541C924.3 541 888.7 541 853.2 541C817.7 541 782.3 541 746.8 541C711.3 541 675.7 541 640 541C604.3 541 568.7 541 533.2 541C497.7 541 462.3 541 426.8 541C391.3 541 355.7 541 320 541C284.3 541 248.7 541 213.2 541C177.7 541 142.3 541 106.8 541C71.3 541 35.7 541 17.8 541L0 541Z" fill="#8c52ff" stroke-linecap="round" stroke-linejoin="miter"></path></svg>