<svg id="visual" viewBox="0 0 960 540" width="960" height="540" xmlns="http://www.w3.org/2000/svg" xmlns:xlink="http://www.w3.org/1999/xlink" version="1.1"><path d="M0 398L17.8 412.8C35.7 427.7 71.3 457.3 106.8 471.2C142.3 485 177.7 483 213.2 474.2C248.7 465.3 284.3 449.7 320 450.8C355.7 452 391.3 470 426.8 478.7C462.3 487.3 497.7 486.7 533.2 474.7C568.7 462.7 604.3 439.3 640 433.5C675.7 427.7 711.3 439.3 746.8 445.7C782.3 452 817.7 453 853.2 452.2C888.7 451.3 924.3 448.7 942.2 447.3L960 446L960 541L942.2 541C924.3 541 888.7 541 853.2 541C817.7 541 782.3 541 746.8 541C711.3 541 675.7 541 640 541C604.3 541 568.7 541 533.2 541C497.7 541 462.3 541 426.8 541C391.3 541 355.7 541 320 541C284.3 541 248.7 541 213.2 541C177.7 541 142.3 541 106.8 541C71.3 541 35.7 541 17.8 541L0 541Z" fill="#8c52ff" stroke-linecap="round" stroke-linejoin="miter"></path></svg>