<svg id="visual" viewBox="0 0 960 540" width="960" height="540" xmlns="http://www.w3.org/2000/svg" xmlns:xlink="http://www.w3.org/1999/xlink" version="1.1"><path d="M0 497L20 490.5C40 484 80 471 120 471C160 471 200 484 240 492.8C280 501.7 320 506.3 360 508.7C400 511 440 511 480 502.2C520 493.3 560 475.7 600 468.2C640 460.7 680 463.3 720 472.3C760 481.3 800 496.7 840 506C880 515.3 920 518.7 940 520.3L960 522L960 541L940 541C920 541 880 541 840 541C800 541 760 541 720 541C680 541 640 541 600 541C560 541 520 541 480 541C440 541 400 541 360 541C320 541 280 541 240 541C200 541 160 541 120 541C80 541 40 541 20 541L0 541Z" fill="#8c52ff" stroke-linecap="round" stroke-linejoin="miter"></path></svg>